<svg>
    <symbol id="manuscript" xmlns="http://www.w3.org/2000/svg" xmlns:xlink="http://www.w3.org/1999/xlink"
         viewBox="0 0 26.9 26.91">
        <defs>
            <style>.cls-1{clip-path:url(#clippath);}.cls-2{fill:none;}.cls-2,.cls-3{stroke-width:0px;}.cls-3{fill:#000;}
            </style>
            <clipPath id="clippath">
                <rect class="cls-2" y="0" width="26.9" height="26.91"/>
            </clipPath>
        </defs>
        <g id="Ebene_1-2">
            <g class="cls-1">
                <path class="cls-3"
                      d="M4.83,23.11c0,.39-.02.75,0,1.11.03.61-.07,1.18-.45,1.72h.18c1.73,0,3.46,0,5.19,0,2.6,0,5.21,0,7.81.01.74,0,1.49,0,2.23-.01.54,0,1.11-.38,1.25-.91.08-.33.08-.68.1-1.02.01-.3,0-.6,0-.9H4.83ZM11.97,13.17s.01.04.02.06c.29-.02.58-.03.87-.07.64-.08,1.28-.15,1.92-.27,1.59-.3,3.05-.94,4.39-1.82.53-.35,1.04-.74,1.52-1.17.5-.44.99-.91,1.41-1.42.48-.59.92-1.23,1.32-1.88.31-.5.56-1.04.78-1.59.37-.89.69-1.79,1.03-2.69.13-.35.26-.7.4-1.08-.59.17-1.13.33-1.68.48-1.06.3-2.12.57-3.16.9-.85.26-1.68.62-2.47,1.05-1.04.56-1.98,1.25-2.83,2.06-.36.34-.67.73-1.01,1.09-.57.61-1,1.31-1.41,2.03-.53.94-.94,1.93-1.22,3.01.34-.31.63-.63.97-.88.62-.46,1.25-.88,1.89-1.31.38-.25.77-.49,1.17-.71.22-.12.51-.01.61.2.13.26.06.51-.17.65-.72.45-1.44.89-2.14,1.37-.83.56-1.55,1.25-2.22,1.99M18.25,12.75s-.06,0-.09.02c-1.01.46-2.05.86-3.14,1.09-.89.18-1.78.31-2.68.33-.35,0-.71,0-1.06,0-.06,0-.14.04-.17.08-.25.38-.51.75-.73,1.15-.28.52-.53,1.06-.78,1.59-.14.31-.42.36-.66.26-.23-.1-.33-.41-.22-.67.41-.98.89-1.92,1.5-2.79.11-.16.23-.32.28-.5.19-.72.34-1.45.54-2.16.34-1.19.85-2.32,1.52-3.37.41-.64.89-1.23,1.37-1.83.58-.72,1.27-1.34,2-1.91.69-.54,1.43-1.01,2.21-1.4.05-.03.11-.1.12-.15,0-.5,0-1,0-1.5H.98v.29c0,7.48,0,14.96,0,22.45,0,.31.03.61.04.92.03.75.77,1.35,1.52,1.28.76-.07,1.33-.72,1.32-1.44-.01-.61,0-1.21,0-1.82,0-.37.19-.56.56-.56h13.83v-9.37ZM19.25,22.12h2.34c.35,0,.52.18.52.52,0,.67.01,1.34,0,2.02-.02.89-.64,1.75-1.45,2.08-.31.13-.62.17-.96.17-5.77,0-11.54,0-17.31,0-.62,0-1.15-.21-1.6-.62-.46-.42-.73-.94-.75-1.58-.02-.35-.04-.7-.04-1.06,0-2.22,0-4.45,0-6.67v-5.43C0,7.97,0,4.38,0,.8,0,.65.02.49.05.34.1.15.32.02.61,0,.66,0,.72,0,.78,0h17.78c.06,0,.12,0,.18,0,.39.06.5.2.5.6v1.52c.42-.14.82-.29,1.22-.41,1.07-.31,2.15-.61,3.22-.92.83-.24,1.66-.48,2.5-.72.33-.1.55-.05.67.22.06.12.06.31.01.43-.33.91-.67,1.81-1.02,2.72-.25.66-.49,1.33-.76,1.98-.33.8-.71,1.57-1.21,2.28-.32.46-.63.92-.97,1.36-.25.32-.52.62-.81.9-.35.34-.72.67-1.1.98-.53.41-1.09.79-1.63,1.2-.06.05-.13.14-.13.22,0,3.22,0,6.44,0,9.66,0,.03,0,.06.01.11"/>
            </g>
        </g>
    </symbol>
    <symbol id="print" xmlns="http://www.w3.org/2000/svg" xmlns:xlink="http://www.w3.org/1999/xlink"
     viewBox="0 0 29.59 20.35">
    <defs>
        <style>
            .cls-1{clip-path:url(#clippath);}.cls-2,.cls-3{stroke-width:0px;}.cls-2,.cls-4{fill:none;}.cls-3{fill:#000;}.cls-4{stroke:#000;stroke-miterlimit:10;stroke-width:.25px;}
        </style>
        <clipPath id="clippath">
            <rect class="cls-2" x="0" y="0" width="29.59" height="20.35"/>
        </clipPath>
    </defs>
    <g id="Ebene_1-2">
        <g class="cls-1">
            <path class="cls-3"
                  d="M28.98,18.51h-13.47c3.22-.98,9.8-1.88,11.56-1.11.08.03.16.03.23-.02.07-.05.11-.12.11-.2V2.12h1.57v16.38ZM14.8,19.74c-.46,0-.85-.32-.95-.74h1.91c-.11.42-.5.74-.96.74M.61,2.12h1.57v15.04c0,.08.04.15.1.2.06.05.15.05.23.03,2.53-.91,9.13.25,11.65,1.11H.61V2.12ZM2.68.89c2.78-.85,9.75.46,11.87,1.3v15.93c-1.83-.67-6.16-1.54-9.39-1.54-.95,0-1.81.07-2.48.26V.89ZM26.91.88v15.94c-2.41-.66-9.05.4-11.87,1.31V2.2c2.93-1,9.82-2.01,11.87-1.32M29.22,1.64h-1.82v-.92c0-.1-.06-.18-.15-.22-2.11-.92-9.66.3-12.45,1.28C12.61.87,5.2-.54,2.36.48c-.1.04-.16.13-.16.23v.92H.37c-.13,0-.25.11-.25.24v16.87c0,.13.11.24.25.24h12.98c.12.69.72,1.23,1.45,1.23s1.33-.53,1.45-1.23h12.98c.13,0,.25-.11.25-.24V1.88c0-.13-.11-.24-.25-.24"/>
            <path class="cls-4"
                  d="M28.98,18.51h-13.47c3.22-.98,9.8-1.88,11.56-1.11.08.03.16.03.23-.02.07-.05.11-.12.11-.2V2.12h1.57v16.38ZM14.8,19.74c-.46,0-.85-.32-.95-.74h1.91c-.11.42-.5.74-.96.74ZM.61,2.12h1.57v15.04c0,.08.04.15.1.2.06.05.15.05.23.03,2.53-.91,9.13.25,11.65,1.11H.61V2.12ZM2.68.89c2.78-.85,9.75.46,11.87,1.3v15.93c-1.83-.67-6.16-1.54-9.39-1.54-.95,0-1.81.07-2.48.26V.89ZM26.91.88v15.94c-2.41-.66-9.05.4-11.87,1.31V2.2c2.93-1,9.82-2.01,11.87-1.32ZM29.22,1.64h-1.82v-.92c0-.1-.06-.18-.15-.22-2.11-.92-9.66.3-12.45,1.28C12.61.87,5.2-.54,2.36.48c-.1.04-.16.13-.16.23v.92H.37c-.13,0-.25.11-.25.24v16.87c0,.13.11.24.25.24h12.98c.12.69.72,1.23,1.45,1.23s1.33-.53,1.45-1.23h12.98c.13,0,.25-.11.25-.24V1.88c0-.13-.11-.24-.25-.24Z"/>
        </g>
    </g>
</symbol>

<symbol id="triangle" xmlns="http://www.w3.org/2000/svg" xmlns:xlink="http://www.w3.org/1999/xlink" viewBox="0 0 19.63 17">
    <defs>
        <style>.cls-1{clip-path:url(#clippath);}.cls-2{stroke-width:0px;}.cls-2,.cls-3{fill:none;}.cls-3{stroke:#000;}
        </style>
        <clipPath id="clippath">
            <rect class="cls-2" x="0" width="19.63" height="17"/>
        </clipPath>
    </defs>
    <g id="Ebene_1-2">
        <g class="cls-1">
            <polygon class="cls-3" points="9.82 1 .87 16.5 18.76 16.5 9.82 1"/>
        </g>
    </g>
</symbol>

<svg id="rings" xmlns="http://www.w3.org/2000/svg" xmlns:xlink="http://www.w3.org/1999/xlink"
     viewBox="0 0 25.62 16.5">
    <defs>
        <style>.cls-1{clip-path:url(#clippath);}.cls-2{stroke-width:0px;}.cls-2,.cls-3{fill:none;}.cls-3{stroke:#000;}
        </style>
        <clipPath id="clippath">
            <rect class="cls-2" width="25.62" height="16.5"/>
        </clipPath>
    </defs>
    <g id="Ebene_1-2">
        <g class="cls-1">
            <circle class="cls-3" cx="8.25" cy="8.25" r="7.75"/>
            <circle class="cls-3" cx="17.37" cy="8.25" r="7.75"/>
        </g>
    </g>
</svg>

</svg>